<svg xmlns="http://www.w3.org/2000/svg" viewBox="0 0 400 400" width="400" height="400" role="img">
<circle cx="200" cy="200" r="150" fill="none" stroke="#AC4E38" stroke-width="8"/><circle cx="200" cy="200" r="140" fill="#FBF8F2" stroke="#1E1B17" stroke-width="4"/><path d="M200 258 L164 214 L200 226 Z" fill="#3A3733"/><path d="M200 258 L236 214 L200 226 Z" fill="#1E1B17"/><path d="M164 214 L152 168 L200 226 Z" fill="#1E1B17"/><path d="M236 214 L248 168 L200 226 Z" fill="#3A3733"/><path d="M152 168 L200 150 L200 226 Z" fill="#3A3733"/><path d="M248 168 L200 150 L200 226 Z" fill="#1E1B17"/><path d="M152 168 L146 196 L164 214 Z" fill="#3A3733"/><path d="M248 168 L254 196 L236 214 Z" fill="#1E1B17"/><path d="M152 168 L200 150 L172 150 Z" fill="#1E1B17"/><path d="M248 168 L200 150 L228 150 Z" fill="#3A3733"/><path d="M172 154 C 156 148 150 156 158 164 C 162 160 168 158 174 158 Z" fill="#1E1B17"/><path d="M228 154 C 244 148 250 156 242 164 C 238 160 232 158 226 158 Z" fill="#3A3733"/><circle cx="188" cy="192" r="3" fill="#FBF8F2"/><circle cx="212" cy="192" r="3" fill="#FBF8F2"/>
</svg>
