<svg xmlns="http://www.w3.org/2000/svg" viewBox="0 0 400 400" width="400" height="400" role="img">
<circle cx="200" cy="200" r="150" fill="none" stroke="#AC4E38" stroke-width="8"/><circle cx="200" cy="200" r="140" fill="#1E1B17"/><line x1="200" y1="236" x2="200" y2="210" stroke="#FBF8F2" stroke-width="1.4" opacity="0.7"/><line x1="200" y1="210" x2="186" y2="196" stroke="#FBF8F2" stroke-width="1.4" opacity="0.7"/><line x1="200" y1="210" x2="214" y2="196" stroke="#FBF8F2" stroke-width="1.4" opacity="0.7"/><line x1="186" y1="196" x2="176" y2="176" stroke="#FBF8F2" stroke-width="1.4" opacity="0.7"/><line x1="214" y1="196" x2="224" y2="176" stroke="#FBF8F2" stroke-width="1.4" opacity="0.7"/><line x1="176" y1="176" x2="168" y2="150" stroke="#FBF8F2" stroke-width="1.4" opacity="0.7"/><line x1="168" y1="150" x2="160" y2="132" stroke="#FBF8F2" stroke-width="1.4" opacity="0.7"/><line x1="168" y1="150" x2="184" y2="160" stroke="#FBF8F2" stroke-width="1.4" opacity="0.7"/><line x1="224" y1="176" x2="232" y2="150" stroke="#FBF8F2" stroke-width="1.4" opacity="0.7"/><line x1="232" y1="150" x2="240" y2="132" stroke="#FBF8F2" stroke-width="1.4" opacity="0.7"/><line x1="232" y1="150" x2="216" y2="160" stroke="#FBF8F2" stroke-width="1.4" opacity="0.7"/><circle cx="200" cy="236" r="3" fill="#FBF8F2"/><circle cx="200" cy="210" r="3" fill="#FBF8F2"/><circle cx="186" cy="196" r="3" fill="#FBF8F2"/><circle cx="214" cy="196" r="3" fill="#FBF8F2"/><circle cx="176" cy="176" r="3" fill="#FBF8F2"/><circle cx="224" cy="176" r="3" fill="#FBF8F2"/><circle cx="168" cy="150" r="3" fill="#FBF8F2"/><circle cx="160" cy="132" r="3" fill="#FBF8F2"/><circle cx="184" cy="160" r="3" fill="#FBF8F2"/><circle cx="232" cy="150" r="3" fill="#FBF8F2"/><circle cx="240" cy="132" r="3" fill="#FBF8F2"/><circle cx="216" cy="160" r="3" fill="#FBF8F2"/><circle cx="150" cy="160" r="1.4" fill="#FBF8F2" opacity="0.8"/><circle cx="250" cy="150" r="1.4" fill="#FBF8F2" opacity="0.8"/><circle cx="170" cy="120" r="1.4" fill="#FBF8F2" opacity="0.8"/><circle cx="235" cy="118" r="1.4" fill="#FBF8F2" opacity="0.8"/><circle cx="200" cy="250" r="1.4" fill="#FBF8F2" opacity="0.8"/><circle cx="160" cy="210" r="1.4" fill="#FBF8F2" opacity="0.8"/><circle cx="248" cy="205" r="1.4" fill="#FBF8F2" opacity="0.8"/><circle cx="200" cy="200" r="120" fill="none" stroke="#FBF8F2" stroke-width="1.5" opacity="0.35"/>
</svg>
